<svg width="26" height="28" viewBox="0 0 26 28" fill="none" xmlns="http://www.w3.org/2000/svg">
<g filter="url(#filter0_d_12025_109)">
<path d="M20.0802 8.36364C20.0802 14.0909 12.5401 19 12.5401 19C12.5401 19 5 14.0909 5 8.36364C5 6.41068 5.7944 4.53771 7.20845 3.15676C8.62249 1.77581 10.5403 1 12.5401 1C14.5399 1 16.4577 1.77581 17.8718 3.15676C19.2858 4.53771 20.0802 6.41068 20.0802 8.36364Z" stroke="#999999" stroke-width="2" stroke-linecap="round" stroke-linejoin="round"/>
<path d="M12.5401 10.8182C13.9282 10.8182 15.0535 9.71925 15.0535 8.36364C15.0535 7.00803 13.9282 5.90909 12.5401 5.90909C11.152 5.90909 10.0267 7.00803 10.0267 8.36364C10.0267 9.71925 11.152 10.8182 12.5401 10.8182Z" stroke="#999999" stroke-width="2" stroke-linecap="round" stroke-linejoin="round"/>
</g>
<defs>
<filter id="filter0_d_12025_109" x="0" y="0" width="25.0802" height="28" filterUnits="userSpaceOnUse" color-interpolation-filters="sRGB">
<feFlood flood-opacity="0" result="BackgroundImageFix"/>
<feColorMatrix in="SourceAlpha" type="matrix" values="0 0 0 0 0 0 0 0 0 0 0 0 0 0 0 0 0 0 127 0" result="hardAlpha"/>
<feOffset dy="4"/>
<feGaussianBlur stdDeviation="2"/>
<feComposite in2="hardAlpha" operator="out"/>
<feColorMatrix type="matrix" values="0 0 0 0 0 0 0 0 0 0 0 0 0 0 0 0 0 0 0.25 0"/>
<feBlend mode="normal" in2="BackgroundImageFix" result="effect1_dropShadow_12025_109"/>
<feBlend mode="normal" in="SourceGraphic" in2="effect1_dropShadow_12025_109" result="shape"/>
</filter>
</defs>
</svg>
